<svg width="56" height="56" viewBox="0 0 56 56" fill="none" xmlns="http://www.w3.org/2000/svg">
<path d="M49 10.5H7C6.07174 10.5 5.1815 10.8687 4.52513 11.5251C3.86875 12.1815 3.5 13.0717 3.5 14V42C3.5 42.9283 3.86875 43.8185 4.52513 44.4749C5.1815 45.1313 6.07174 45.5 7 45.5H49C49.9283 45.5 50.8185 45.1313 51.4749 44.4749C52.1313 43.8185 52.5 42.9283 52.5 42V14C52.5 13.0717 52.1313 12.1815 51.4749 11.5251C50.8185 10.8687 49.9283 10.5 49 10.5V10.5ZM45.15 14L28 25.865L10.85 14H45.15ZM7 42V15.5925L27.0025 29.435C27.2954 29.6382 27.6435 29.7471 28 29.7471C28.3565 29.7471 28.7046 29.6382 28.9975 29.435L49 15.5925V42H7Z" fill="white"/>
</svg>
