<svg width="43" height="43" viewBox="0 0 43 43" fill="none" xmlns="http://www.w3.org/2000/svg">
<path d="M17.9167 32.25C21.0968 32.2494 24.1854 31.1847 26.6905 29.2257L34.5666 37.1018L37.1001 34.5684L29.2239 26.6923C31.184 24.1869 32.2492 21.0977 32.25 17.9167C32.25 10.0136 25.8197 3.58334 17.9167 3.58334C10.0136 3.58334 3.58334 10.0136 3.58334 17.9167C3.58334 25.8197 10.0136 32.25 17.9167 32.25ZM17.9167 7.16668C23.8453 7.16668 28.6667 11.9881 28.6667 17.9167C28.6667 23.8453 23.8453 28.6667 17.9167 28.6667C11.9881 28.6667 7.16668 23.8453 7.16668 17.9167C7.16668 11.9881 11.9881 7.16668 17.9167 7.16668Z" fill="black"/>
</svg>
